<svg width="22" height="22" fill="none" xmlns="http://www.w3.org/2000/svg"><path d="M19.852 4.813h-2.063a2.15 2.15 0 00-2.148 2.148v12.89A2.15 2.15 0 0017.789 22h2.063A2.15 2.15 0 0022 19.852V6.96a2.15 2.15 0 00-2.148-2.149zm.43 15.039a.43.43 0 01-.43.43h-2.063a.43.43 0 01-.43-.43V6.96a.43.43 0 01.43-.43h2.063a.43.43 0 01.43.43v12.89zM4.21 11.344H2.149A2.15 2.15 0 000 13.492v6.36A2.15 2.15 0 002.148 22h2.063a2.15 2.15 0 002.148-2.148v-6.36a2.15 2.15 0 00-2.148-2.148zm.43 8.508a.43.43 0 01-.43.43H2.149a.43.43 0 01-.43-.43v-6.36a.43.43 0 01.43-.43h2.063a.43.43 0 01.43.43v6.36zM12.031 0H9.97a2.15 2.15 0 00-2.15 2.148v17.704A2.15 2.15 0 009.97 22h2.062a2.15 2.15 0 002.149-2.148V2.148A2.15 2.15 0 0012.03 0zm.43 19.852a.43.43 0 01-.43.43H9.97a.43.43 0 01-.43-.43V2.148a.43.43 0 01.43-.43h2.062a.43.43 0 01.43.43v17.704z" fill="#fff"/></svg>