<svg viewBox="0 0 40 40" xmlns="http://www.w3.org/2000/svg" xmlns:xlink="http://www.w3.org/1999/xlink"><style>:root&gt;svg{display:none}:root&gt;svg:target{display:block}</style><svg fill="none" viewBox="0 0 22 22" id="adjust" xmlns="http://www.w3.org/2000/svg"><path d="M8.895 8.594a.86.86 0 00-.86-.86H4.598a.86.86 0 00-.86.86v1.541H0v1.72h3.738v1.465c0 .475.385.86.86.86h3.437a.86.86 0 00.86-.86v-1.466H22v-1.719H8.895V8.594zm-1.72 3.867H5.458V9.453h1.719v3.008zm11.345 3.953a.86.86 0 00-.86-.86h-3.437a.86.86 0 00-.86.86v1.504H0v1.719h13.363v1.504a.86.86 0 00.86.859h3.437a.86.86 0 00.86-.86v-1.503H22v-1.719h-3.48v-1.504zm-1.72 3.867h-1.718v-3.008h1.719v3.008zm1.805-17.875V.86a.86.86 0 00-.859-.86H14.31a.86.86 0 00-.86.86v1.546H0v1.719h13.45v1.46c0 .476.384.86.859.86h3.437a.86.86 0 00.86-.86v-1.46H22V2.406h-3.395zm-1.718 2.32h-1.719V1.72h1.719v3.008z" fill="#fff"/></svg><svg fill="none" viewBox="0 0 24 24" id="arrow_down" xmlns="http://www.w3.org/2000/svg"><path d="M7.41 8.59L12 13.17l4.59-4.58L18 10l-6 6-6-6 1.41-1.41z" fill="#694A04"/></svg><svg fill="none" viewBox="0 0 22 22" id="barchart" xmlns="http://www.w3.org/2000/svg"><path d="M19.852 4.813h-2.063a2.15 2.15 0 00-2.148 2.148v12.89A2.15 2.15 0 0017.789 22h2.063A2.15 2.15 0 0022 19.852V6.96a2.15 2.15 0 00-2.148-2.149zm.43 15.039a.43.43 0 01-.43.43h-2.063a.43.43 0 01-.43-.43V6.96a.43.43 0 01.43-.43h2.063a.43.43 0 01.43.43v12.89zM4.21 11.344H2.149A2.15 2.15 0 000 13.492v6.36A2.15 2.15 0 002.148 22h2.063a2.15 2.15 0 002.148-2.148v-6.36a2.15 2.15 0 00-2.148-2.148zm.43 8.508a.43.43 0 01-.43.43H2.149a.43.43 0 01-.43-.43v-6.36a.43.43 0 01.43-.43h2.063a.43.43 0 01.43.43v6.36zM12.031 0H9.97a2.15 2.15 0 00-2.15 2.148v17.704A2.15 2.15 0 009.97 22h2.062a2.15 2.15 0 002.149-2.148V2.148A2.15 2.15 0 0012.03 0zm.43 19.852a.43.43 0 01-.43.43H9.97a.43.43 0 01-.43-.43V2.148a.43.43 0 01.43-.43h2.062a.43.43 0 01.43.43v17.704z" fill="#fff"/></svg><svg fill="none" viewBox="0 0 40 40" id="check" xmlns="http://www.w3.org/2000/svg"><path d="M38.856 5.468a1.507 1.507 0 00-2.132-.002L18.64 23.504l-6.525-7.087a1.508 1.508 0 00-2.218 2.042l7.588 8.24a1.506 1.506 0 002.173.047L38.853 7.601c.59-.588.591-1.543.003-2.133z" fill="#fff"/><path d="M38.492 18.492c-.832 0-1.507.675-1.507 1.508 0 9.366-7.62 16.985-16.985 16.985-9.365 0-16.985-7.62-16.985-16.985 0-9.365 7.62-16.985 16.985-16.985A1.507 1.507 0 1020 0C8.972 0 0 8.972 0 20s8.972 20 20 20 20-8.972 20-20c0-.833-.675-1.508-1.508-1.508z" fill="#fff"/></svg><svg fill="none" viewBox="0 0 16 16" id="close" xmlns="http://www.w3.org/2000/svg"><g clip-path="url(#eclip0)"><path d="M.372 15.479a1.264 1.264 0 001.794 0L8 9.645l5.834 5.834a1.264 1.264 0 001.794 0 1.269 1.269 0 000-1.795L9.794 7.85l5.535-5.534A1.269 1.269 0 1013.534.521L8 6.056 2.466.52A1.268 1.268 0 10.67 2.316L6.206 7.85.372 13.684a1.268 1.268 0 000 1.795z" fill="#fff"/></g><defs><clipPath id="eclip0"><path fill="#fff" d="M0 0h16v16H0z"/></clipPath></defs></svg><svg fill="none" viewBox="0 0 22 22" id="credit" xmlns="http://www.w3.org/2000/svg"><path d="M19.422 2.922H2.578A2.581 2.581 0 000 5.5v11a2.581 2.581 0 002.578 2.578h16.844A2.581 2.581 0 0022 16.5v-11a2.581 2.581 0 00-2.578-2.578zm.86 13.578a.86.86 0 01-.86.86H2.578a.86.86 0 01-.86-.86V9.195h18.563V16.5zm0-9.883H1.718V5.5a.86.86 0 01.86-.86h16.843a.86.86 0 01.86.86v1.117z" fill="#fff"/><path d="M14.266 10.484H2.922v1.72h11.344v-1.72z" fill="#fff"/></svg><svg fill="none" viewBox="0 0 22 22" id="expand" xmlns="http://www.w3.org/2000/svg"><g clip-path="url(#gclip0)" fill="#fff" stroke="#fff" stroke-width=".3"><path d="M0 .786v5.5h1.571V1.57h4.715V0h-5.5A.785.785 0 000 .786h0zM21.214 0h-5.5v1.571h4.714v4.715H22v-5.5A.785.785 0 0021.214 0v0zm-.786 20.428h-4.714V22h5.5a.785.785 0 00.786-.786v-5.5h-1.572v4.714zM1.571 15.714H0v5.5c0 .435.351.786.786.786h5.5v-1.572H1.57v-4.714z"/></g><defs><clipPath id="gclip0"><path fill="#fff" d="M0 0h22v22H0z"/></clipPath></defs></svg><svg fill="none" viewBox="0 0 22 22" id="idea" xmlns="http://www.w3.org/2000/svg"><path d="M1.934 6.531H0V8.25h1.934V6.531zm.681 4.195l-1.824.918.773 1.535 1.824-.918-.773-1.535zm-1.05-9.234L.792 3.027l1.78.897.773-1.535-1.78-.897zM22 6.531h-1.934V8.25H22V6.531zm-2.614 4.195l-.774 1.535 1.824.919.773-1.535-1.823-.919zm1.049-9.234l-1.78.897.773 1.535 1.78-.897-.773-1.535zm-2.045 5.85C18.364 3.289 15.06 0 11 0 6.941 0 3.636 3.289 3.61 7.342v.049c.013 2.951 1.254 4.584 2.35 6.027.917 1.206 1.64 2.158 1.64 3.744v2.26A2.581 2.581 0 0010.18 22h1.642a2.581 2.581 0 002.578-2.578v-2.26c0-1.586.724-2.538 1.64-3.744 1.097-1.443 2.338-3.076 2.351-6.027v-.05zm-5.71 12.08a.86.86 0 01-.859.86H10.18a.86.86 0 01-.86-.86v-1.676h3.361v1.676zm1.991-7.044c-.795 1.046-1.612 2.121-1.89 3.65H9.22c-.279-1.528-1.096-2.604-1.891-3.65-1.025-1.35-1.994-2.623-2-5.01A5.678 5.678 0 0111 1.719c3.12 0 5.66 2.533 5.672 5.65-.008 2.387-.976 3.66-2 5.01z" fill="#fff"/></svg><svg fill="none" viewBox="0 0 22 22" id="minimize" xmlns="http://www.w3.org/2000/svg"><g clip-path="url(#iclip0)"><path d="M6.286 5.5V0H4.714v4.714H0v1.572h5.5a.785.785 0 00.786-.786zm10.214.786H22V4.714h-4.714V0h-1.572v5.5c0 .434.352.786.786.786zm.786 11H22v-1.572h-5.5a.785.785 0 00-.786.786V22h1.572v-4.714zM4.714 22h1.572v-5.5a.785.785 0 00-.786-.786H0v1.572h4.714V22z" fill="#fff"/><path d="M6.286 5.5V0H4.714v4.714H0v1.572h5.5a.785.785 0 00.786-.786zm10.214.786H22V4.714h-4.714V0h-1.572v5.5c0 .434.352.786.786.786zm.786 11H22v-1.572h-5.5a.785.785 0 00-.786.786V22h1.572v-4.714zM4.714 22h1.572v-5.5a.785.785 0 00-.786-.786H0v1.572h4.714V22z" stroke="#fff" stroke-width=".3"/></g><defs><clipPath id="iclip0"><path fill="#fff" d="M0 0h22v22H0z"/></clipPath></defs></svg><svg fill="none" viewBox="0 0 22 22" id="pdf" xmlns="http://www.w3.org/2000/svg"><g clip-path="url(#jclip0)" fill="#fff"><path d="M15.813 11h-2.75a.687.687 0 00-.688.688v5.5c0 .38.308.687.688.687h2.75c.759 0 1.374-.616 1.374-1.375v-4.125c0-.76-.615-1.375-1.375-1.375zm0 5.5H13.75v-4.125h2.063V16.5zM22 12.375V11h-3.438a.687.687 0 00-.687.688v6.187h1.375v-2.75H22V13.75h-2.75v-1.375H22z"/><path d="M1.375 19.937V2.062c0-.38.308-.687.688-.687h10.312v2.75c0 .76.616 1.375 1.375 1.375h2.75v2.062h1.375v-2.75a.687.687 0 00-.2-.488L13.552.2a.688.688 0 00-.489-.2h-11C.923 0 0 .924 0 2.063v17.875C0 21.077.923 22 2.063 22h4.812v-1.375H2.062a.688.688 0 01-.687-.688z"/><path d="M10.313 11h-2.75a.687.687 0 00-.688.688v6.187H8.25v-2.063h2.063c.759 0 1.374-.615 1.374-1.374v-2.063c0-.76-.615-1.375-1.374-1.375zm0 3.438H8.25v-2.063h2.063v2.063z"/></g><defs><clipPath id="jclip0"><path fill="#fff" d="M0 0h22v22H0z"/></clipPath></defs></svg><svg fill="none" viewBox="0 0 22 22" id="play" xmlns="http://www.w3.org/2000/svg"><path d="M2.357 22a.787.787 0 01-.785-.786V.784A.785.785 0 012.757.109l17.286 10.215a.787.787 0 010 1.353L2.757 21.891a.793.793 0 01-.4.109zm.786-19.839v17.677l14.955-8.839L3.143 2.161z" fill="#fff"/></svg><svg fill="none" viewBox="0 0 22 22" id="plus" xmlns="http://www.w3.org/2000/svg"><g clip-path="url(#lclip0)"><path d="M12.739 14.463a8.155 8.155 0 00-1.714-.915 4.374 4.374 0 001.422-2.885 6.402 6.402 0 014.507-1.83 6.43 6.43 0 013.695 1.159.86.86 0 10.983-1.41 8.17 8.17 0 00-1.714-.914 4.372 4.372 0 001.437-3.243A4.387 4.387 0 0016.973.043a4.387 4.387 0 00-4.382 4.382 4.37 4.37 0 001.427 3.233 8.136 8.136 0 00-1.871 1.016 4.389 4.389 0 00-4.067-2.75 4.387 4.387 0 00-4.383 4.382c0 1.275.548 2.424 1.42 3.225-2.331.874-4.221 2.75-4.99 5.142a2.553 2.553 0 00.37 2.308c.49.673 1.25 1.06 2.083 1.06h7.476a.86.86 0 000-1.72H2.58a.85.85 0 01-.694-.353.852.852 0 01-.124-.77c.85-2.64 3.44-4.484 6.299-4.484 1.33 0 2.608.4 3.695 1.159a.86.86 0 00.983-1.41zm4.234-12.701a2.667 2.667 0 012.664 2.663 2.667 2.667 0 01-2.664 2.664 2.667 2.667 0 01-2.664-2.664 2.667 2.667 0 012.664-2.663zM8.08 7.642a2.667 2.667 0 012.663 2.664A2.667 2.667 0 018.08 12.97a2.667 2.667 0 01-2.664-2.664A2.667 2.667 0 018.08 7.642zM22 17.959a.86.86 0 01-.86.859h-2.362v2.363a.86.86 0 11-1.719 0v-2.363h-2.363a.86.86 0 010-1.719h2.363v-2.363a.86.86 0 011.719 0V17.1h2.363a.86.86 0 01.859.86z" fill="#fff"/></g><defs><clipPath id="lclip0"><path fill="#fff" d="M0 0h22v22H0z"/></clipPath></defs></svg><svg fill="none" viewBox="0 0 22 22" id="power" xmlns="http://www.w3.org/2000/svg"><g clip-path="url(#mclip0)" fill="#fff"><path d="M11.86 0h-1.72v11.86h1.72V0z"/><path d="M18.444 4.029a10.462 10.462 0 00-4.866-2.767v1.787c3.603 1.105 6.23 4.463 6.23 8.424 0 4.857-3.95 8.808-8.808 8.808-4.857 0-8.809-3.951-8.809-8.808 0-3.96 2.628-7.319 6.23-8.424V1.262a10.462 10.462 0 00-4.865 2.767 10.458 10.458 0 00-3.083 7.444 10.46 10.46 0 003.083 7.444A10.458 10.458 0 0011 22c2.812 0 5.456-1.095 7.444-3.083a10.458 10.458 0 003.083-7.444c0-2.812-1.095-5.456-3.083-7.444z"/></g><defs><clipPath id="mclip0"><path fill="#fff" d="M0 0h22v22H0z"/></clipPath></defs></svg><svg fill="none" viewBox="0 0 20 24" id="remember" xmlns="http://www.w3.org/2000/svg"><path fill-rule="evenodd" clip-rule="evenodd" d="M14.024 6.021l-1.38 1.381a.644.644 0 10.911.912l.28-.28v.514a2.81 2.81 0 01-2.807 2.807 2.81 2.81 0 01-2.807-2.807 2.81 2.81 0 012.807-2.807.645.645 0 000-1.29 4.101 4.101 0 00-4.096 4.097 4.101 4.101 0 004.096 4.097 4.1 4.1 0 004.097-4.097v-.515l.28.28a.645.645 0 00.912-.911l-1.381-1.38a.645.645 0 00-.912 0z" fill="#fff" stroke="#fff" stroke-width=".3"/><path fill-rule="evenodd" clip-rule="evenodd" d="M19.267 10.008C19.267 1.789 12.05 1 10.827 1 6.16 1 3.136 5.054 3.136 8.214v1.149l-1.998 2.569a1.996 1.996 0 00.842 3.08l.601.24.974 2.726a3.413 3.413 0 003.207 2.26h1.003l.568 2.274c.072.287.33.488.625.488h8.285a.645.645 0 00.62-.822l-1.317-4.607 2.137-4.81a6.738 6.738 0 00.585-2.753zm-1.762 2.23l-2.233 5.023a.645.645 0 00-.03.439l1.145 4.01H9.461l-.569-2.272a.644.644 0 00-.625-.488H6.761a2.121 2.121 0 01-1.993-1.405l-1.072-3a.644.644 0 00-.368-.382l-.87-.348a.71.71 0 01-.304-1.092l2.044-2.628c.146-.187.226-.421.226-.658V8.214c0-1.731 1.834-5.925 6.404-5.925 1.013 0 7.15.616 7.15 7.719 0 .773-.16 1.523-.473 2.23z" fill="#fff" stroke="#fff" stroke-width=".3"/></svg><svg fill="none" viewBox="0 0 22 22" id="settings" xmlns="http://www.w3.org/2000/svg"><path d="M22 12.45v-2.9l-2.93-.78a8.278 8.278 0 00-.79-1.898l1.498-2.603-2.047-2.047-2.603 1.498a8.276 8.276 0 00-1.899-.79L12.45 0h-2.9l-.78 2.93a8.28 8.28 0 00-1.898.79L4.269 2.222 2.222 4.269 3.72 6.872a8.274 8.274 0 00-.79 1.899L0 9.55v2.899l2.93.78c.183.66.448 1.296.79 1.898L2.222 17.73l2.047 2.047 2.603-1.498a8.276 8.276 0 001.899.79L9.55 22h2.899l.78-2.93a8.281 8.281 0 001.898-.79l2.603 1.498 2.047-2.047-1.498-2.603a8.275 8.275 0 00.79-1.899l2.93-.78zm-4.38-.614l-.107.52a6.585 6.585 0 01-.951 2.287l-.29.442 1.36 2.362-.185.184-2.362-1.36-.442.29a6.583 6.583 0 01-2.287.952l-.52.108-.708 2.66h-.256l-.708-2.66-.52-.108a6.586 6.586 0 01-2.287-.951l-.442-.29-2.362 1.36-.184-.185 1.36-2.362-.29-.442a6.584 6.584 0 01-.952-2.287l-.108-.52-2.66-.708v-.256l2.66-.708.108-.52a6.584 6.584 0 01.951-2.287l.29-.442-1.36-2.362.185-.184 2.362 1.36.442-.291a6.585 6.585 0 012.287-.951l.52-.108.708-2.66h.256l.708 2.66.52.108a6.585 6.585 0 012.287.951l.442.29 2.362-1.36.184.185-1.36 2.362.29.442a6.58 6.58 0 01.952 2.287l.108.52 2.66.708v.256l-2.66.708z" fill="#fff"/><path d="M11 6.016A4.99 4.99 0 006.016 11 4.99 4.99 0 0011 15.984 4.99 4.99 0 0015.984 11 4.99 4.99 0 0011 6.016zm0 8.25A3.27 3.27 0 017.734 11 3.27 3.27 0 0111 7.734 3.27 3.27 0 0114.266 11 3.27 3.27 0 0111 14.266z" fill="#fff"/></svg><svg fill="none" viewBox="0 0 20 20" id="sign" xmlns="http://www.w3.org/2000/svg"><path d="M3.333 18.333H1.667V1.667h1.666V0H0v20h3.333v-1.667zM16.667 1.667h1.666v16.666h-1.666V20H20V0h-3.333v1.667zM5 16.667h10v-3.334h-1.667V15H7.277l4.231-5-4.23-5h6.055v1.667H15V3.333H5v1.555L9.325 10 5 15.112v1.555z" fill="#fff"/></svg><svg fill="none" viewBox="0 0 20 24" id="success" xmlns="http://www.w3.org/2000/svg"><path d="M12.47 7.228L10.307 9.39l-.977-.977a.78.78 0 10-1.103 1.102l1.53 1.529a.777.777 0 001.102 0l2.712-2.712a.78.78 0 00-1.103-1.103z" fill="#fff" stroke="#fff" stroke-width=".3"/><path d="M10.654 1.397c-4.727 0-8.572 3.845-8.572 8.572v1.126l-1.28 4.231c-.1.332.08.683.406.796l2.18.756v3.03c0 .355.29.644.645.644H7.31v2.2c0 .356.289.645.645.645h7.843a.645.645 0 00.645-.645V16.29a8.563 8.563 0 002.783-6.321c0-4.727-3.846-8.572-8.572-8.572zm4.726 14.112a.645.645 0 00-.226.49v6.109H8.6v-2.2a.645.645 0 00-.645-.645H4.678v-2.844a.644.644 0 00-.433-.61l-2.03-.702 1.128-3.73a.644.644 0 00.028-.187V9.969c0-4.016 3.267-7.283 7.283-7.283s7.283 3.267 7.283 7.283a7.277 7.277 0 01-2.557 5.54z" fill="#fff" stroke="#fff" stroke-width=".3"/></svg></svg>