<svg width="22" height="22" fill="none" xmlns="http://www.w3.org/2000/svg"><g clip-path="url(#clip0)"><path d="M6.286 5.5V0H4.714v4.714H0v1.572h5.5a.785.785 0 00.786-.786zm10.214.786H22V4.714h-4.714V0h-1.572v5.5c0 .434.352.786.786.786zm.786 11H22v-1.572h-5.5a.785.785 0 00-.786.786V22h1.572v-4.714zM4.714 22h1.572v-5.5a.785.785 0 00-.786-.786H0v1.572h4.714V22z" fill="#fff"/><path d="M6.286 5.5V0H4.714v4.714H0v1.572h5.5a.785.785 0 00.786-.786zm10.214.786H22V4.714h-4.714V0h-1.572v5.5c0 .434.352.786.786.786zm.786 11H22v-1.572h-5.5a.785.785 0 00-.786.786V22h1.572v-4.714zM4.714 22h1.572v-5.5a.785.785 0 00-.786-.786H0v1.572h4.714V22z" stroke="#fff" stroke-width=".3"/></g><defs><clipPath id="clip0"><path fill="#fff" d="M0 0h22v22H0z"/></clipPath></defs></svg>