<svg width="22" height="22" fill="none" xmlns="http://www.w3.org/2000/svg"><g clip-path="url(#clip0)" fill="#fff"><path d="M15.813 11h-2.75a.687.687 0 00-.688.688v5.5c0 .38.308.687.688.687h2.75c.759 0 1.374-.616 1.374-1.375v-4.125c0-.76-.615-1.375-1.375-1.375zm0 5.5H13.75v-4.125h2.063V16.5zM22 12.375V11h-3.438a.687.687 0 00-.687.688v6.187h1.375v-2.75H22V13.75h-2.75v-1.375H22z"/><path d="M1.375 19.937V2.062c0-.38.308-.687.688-.687h10.312v2.75c0 .76.616 1.375 1.375 1.375h2.75v2.062h1.375v-2.75a.687.687 0 00-.2-.488L13.552.2a.688.688 0 00-.489-.2h-11C.923 0 0 .924 0 2.063v17.875C0 21.077.923 22 2.063 22h4.812v-1.375H2.062a.688.688 0 01-.687-.688z"/><path d="M10.313 11h-2.75a.687.687 0 00-.688.688v6.187H8.25v-2.063h2.063c.759 0 1.374-.615 1.374-1.374v-2.063c0-.76-.615-1.375-1.374-1.375zm0 3.438H8.25v-2.063h2.063v2.063z"/></g><defs><clipPath id="clip0"><path fill="#fff" d="M0 0h22v22H0z"/></clipPath></defs></svg>