<svg width="22" height="22" fill="none" xmlns="http://www.w3.org/2000/svg"><g clip-path="url(#clip0)" fill="#fff"><path d="M11.86 0h-1.72v11.86h1.72V0z"/><path d="M18.444 4.029a10.462 10.462 0 00-4.866-2.767v1.787c3.603 1.105 6.23 4.463 6.23 8.424 0 4.857-3.95 8.808-8.808 8.808-4.857 0-8.809-3.951-8.809-8.808 0-3.96 2.628-7.319 6.23-8.424V1.262a10.462 10.462 0 00-4.865 2.767 10.458 10.458 0 00-3.083 7.444 10.46 10.46 0 003.083 7.444A10.458 10.458 0 0011 22c2.812 0 5.456-1.095 7.444-3.083a10.458 10.458 0 003.083-7.444c0-2.812-1.095-5.456-3.083-7.444z"/></g><defs><clipPath id="clip0"><path fill="#fff" d="M0 0h22v22H0z"/></clipPath></defs></svg>