<svg width="20" height="24" fill="none" xmlns="http://www.w3.org/2000/svg"><path fill-rule="evenodd" clip-rule="evenodd" d="M14.024 6.021l-1.38 1.381a.644.644 0 10.911.912l.28-.28v.514a2.81 2.81 0 01-2.807 2.807 2.81 2.81 0 01-2.807-2.807 2.81 2.81 0 012.807-2.807.645.645 0 000-1.29 4.101 4.101 0 00-4.096 4.097 4.101 4.101 0 004.096 4.097 4.1 4.1 0 004.097-4.097v-.515l.28.28a.645.645 0 00.912-.911l-1.381-1.38a.645.645 0 00-.912 0z" fill="#fff" stroke="#fff" stroke-width=".3"/><path fill-rule="evenodd" clip-rule="evenodd" d="M19.267 10.008C19.267 1.789 12.05 1 10.827 1 6.16 1 3.136 5.054 3.136 8.214v1.149l-1.998 2.569a1.996 1.996 0 00.842 3.08l.601.24.974 2.726a3.413 3.413 0 003.207 2.26h1.003l.568 2.274c.072.287.33.488.625.488h8.285a.645.645 0 00.62-.822l-1.317-4.607 2.137-4.81a6.738 6.738 0 00.585-2.753zm-1.762 2.23l-2.233 5.023a.645.645 0 00-.03.439l1.145 4.01H9.461l-.569-2.272a.644.644 0 00-.625-.488H6.761a2.121 2.121 0 01-1.993-1.405l-1.072-3a.644.644 0 00-.368-.382l-.87-.348a.71.71 0 01-.304-1.092l2.044-2.628c.146-.187.226-.421.226-.658V8.214c0-1.731 1.834-5.925 6.404-5.925 1.013 0 7.15.616 7.15 7.719 0 .773-.16 1.523-.473 2.23z" fill="#fff" stroke="#fff" stroke-width=".3"/></svg>