<svg width="22" height="22" fill="none" xmlns="http://www.w3.org/2000/svg"><g clip-path="url(#clip0)" fill="#fff" stroke="#fff" stroke-width=".3"><path d="M0 .786v5.5h1.571V1.57h4.715V0h-5.5A.785.785 0 000 .786h0zM21.214 0h-5.5v1.571h4.714v4.715H22v-5.5A.785.785 0 0021.214 0v0zm-.786 20.428h-4.714V22h5.5a.785.785 0 00.786-.786v-5.5h-1.572v4.714zM1.571 15.714H0v5.5c0 .435.351.786.786.786h5.5v-1.572H1.57v-4.714z"/></g><defs><clipPath id="clip0"><path fill="#fff" d="M0 0h22v22H0z"/></clipPath></defs></svg>