<svg width="22" height="22" fill="none" xmlns="http://www.w3.org/2000/svg"><path d="M1.934 6.531H0V8.25h1.934V6.531zm.681 4.195l-1.824.918.773 1.535 1.824-.918-.773-1.535zm-1.05-9.234L.792 3.027l1.78.897.773-1.535-1.78-.897zM22 6.531h-1.934V8.25H22V6.531zm-2.614 4.195l-.774 1.535 1.824.919.773-1.535-1.823-.919zm1.049-9.234l-1.78.897.773 1.535 1.78-.897-.773-1.535zm-2.045 5.85C18.364 3.289 15.06 0 11 0 6.941 0 3.636 3.289 3.61 7.342v.049c.013 2.951 1.254 4.584 2.35 6.027.917 1.206 1.64 2.158 1.64 3.744v2.26A2.581 2.581 0 0010.18 22h1.642a2.581 2.581 0 002.578-2.578v-2.26c0-1.586.724-2.538 1.64-3.744 1.097-1.443 2.338-3.076 2.351-6.027v-.05zm-5.71 12.08a.86.86 0 01-.859.86H10.18a.86.86 0 01-.86-.86v-1.676h3.361v1.676zm1.991-7.044c-.795 1.046-1.612 2.121-1.89 3.65H9.22c-.279-1.528-1.096-2.604-1.891-3.65-1.025-1.35-1.994-2.623-2-5.01A5.678 5.678 0 0111 1.719c3.12 0 5.66 2.533 5.672 5.65-.008 2.387-.976 3.66-2 5.01z" fill="#fff"/></svg>