<svg width="22" height="22" fill="none" xmlns="http://www.w3.org/2000/svg"><path d="M22 12.45v-2.9l-2.93-.78a8.278 8.278 0 00-.79-1.898l1.498-2.603-2.047-2.047-2.603 1.498a8.276 8.276 0 00-1.899-.79L12.45 0h-2.9l-.78 2.93a8.28 8.28 0 00-1.898.79L4.269 2.222 2.222 4.269 3.72 6.872a8.274 8.274 0 00-.79 1.899L0 9.55v2.899l2.93.78c.183.66.448 1.296.79 1.898L2.222 17.73l2.047 2.047 2.603-1.498a8.276 8.276 0 001.899.79L9.55 22h2.899l.78-2.93a8.281 8.281 0 001.898-.79l2.603 1.498 2.047-2.047-1.498-2.603a8.275 8.275 0 00.79-1.899l2.93-.78zm-4.38-.614l-.107.52a6.585 6.585 0 01-.951 2.287l-.29.442 1.36 2.362-.185.184-2.362-1.36-.442.29a6.583 6.583 0 01-2.287.952l-.52.108-.708 2.66h-.256l-.708-2.66-.52-.108a6.586 6.586 0 01-2.287-.951l-.442-.29-2.362 1.36-.184-.185 1.36-2.362-.29-.442a6.584 6.584 0 01-.952-2.287l-.108-.52-2.66-.708v-.256l2.66-.708.108-.52a6.584 6.584 0 01.951-2.287l.29-.442-1.36-2.362.185-.184 2.362 1.36.442-.291a6.585 6.585 0 012.287-.951l.52-.108.708-2.66h.256l.708 2.66.52.108a6.585 6.585 0 012.287.951l.442.29 2.362-1.36.184.185-1.36 2.362.29.442a6.58 6.58 0 01.952 2.287l.108.52 2.66.708v.256l-2.66.708z" fill="#fff"/><path d="M11 6.016A4.99 4.99 0 006.016 11 4.99 4.99 0 0011 15.984 4.99 4.99 0 0015.984 11 4.99 4.99 0 0011 6.016zm0 8.25A3.27 3.27 0 017.734 11 3.27 3.27 0 0111 7.734 3.27 3.27 0 0114.266 11 3.27 3.27 0 0111 14.266z" fill="#fff"/></svg>