<svg width="22" height="22" fill="none" xmlns="http://www.w3.org/2000/svg"><path d="M8.895 8.594a.86.86 0 00-.86-.86H4.598a.86.86 0 00-.86.86v1.541H0v1.72h3.738v1.465c0 .475.385.86.86.86h3.437a.86.86 0 00.86-.86v-1.466H22v-1.719H8.895V8.594zm-1.72 3.867H5.458V9.453h1.719v3.008zm11.345 3.953a.86.86 0 00-.86-.86h-3.437a.86.86 0 00-.86.86v1.504H0v1.719h13.363v1.504a.86.86 0 00.86.859h3.437a.86.86 0 00.86-.86v-1.503H22v-1.719h-3.48v-1.504zm-1.72 3.867h-1.718v-3.008h1.719v3.008zm1.805-17.875V.86a.86.86 0 00-.859-.86H14.31a.86.86 0 00-.86.86v1.546H0v1.719h13.45v1.46c0 .476.384.86.859.86h3.437a.86.86 0 00.86-.86v-1.46H22V2.406h-3.395zm-1.718 2.32h-1.719V1.72h1.719v3.008z" fill="#fff"/></svg>