<svg width="40" height="40" fill="none" xmlns="http://www.w3.org/2000/svg"><path d="M38.856 5.468a1.507 1.507 0 00-2.132-.002L18.64 23.504l-6.525-7.087a1.508 1.508 0 00-2.218 2.042l7.588 8.24a1.506 1.506 0 002.173.047L38.853 7.601c.59-.588.591-1.543.003-2.133z" fill="#fff"/><path d="M38.492 18.492c-.832 0-1.507.675-1.507 1.508 0 9.366-7.62 16.985-16.985 16.985-9.365 0-16.985-7.62-16.985-16.985 0-9.365 7.62-16.985 16.985-16.985A1.507 1.507 0 1020 0C8.972 0 0 8.972 0 20s8.972 20 20 20 20-8.972 20-20c0-.833-.675-1.508-1.508-1.508z" fill="#fff"/></svg>