<svg width="22" height="22" fill="none" xmlns="http://www.w3.org/2000/svg"><g clip-path="url(#clip0)"><path d="M12.739 14.463a8.155 8.155 0 00-1.714-.915 4.374 4.374 0 001.422-2.885 6.402 6.402 0 014.507-1.83 6.43 6.43 0 013.695 1.159.86.86 0 10.983-1.41 8.17 8.17 0 00-1.714-.914 4.372 4.372 0 001.437-3.243A4.387 4.387 0 0016.973.043a4.387 4.387 0 00-4.382 4.382 4.37 4.37 0 001.427 3.233 8.136 8.136 0 00-1.871 1.016 4.389 4.389 0 00-4.067-2.75 4.387 4.387 0 00-4.383 4.382c0 1.275.548 2.424 1.42 3.225-2.331.874-4.221 2.75-4.99 5.142a2.553 2.553 0 00.37 2.308c.49.673 1.25 1.06 2.083 1.06h7.476a.86.86 0 000-1.72H2.58a.85.85 0 01-.694-.353.852.852 0 01-.124-.77c.85-2.64 3.44-4.484 6.299-4.484 1.33 0 2.608.4 3.695 1.159a.86.86 0 00.983-1.41zm4.234-12.701a2.667 2.667 0 012.664 2.663 2.667 2.667 0 01-2.664 2.664 2.667 2.667 0 01-2.664-2.664 2.667 2.667 0 012.664-2.663zM8.08 7.642a2.667 2.667 0 012.663 2.664A2.667 2.667 0 018.08 12.97a2.667 2.667 0 01-2.664-2.664A2.667 2.667 0 018.08 7.642zM22 17.959a.86.86 0 01-.86.859h-2.362v2.363a.86.86 0 11-1.719 0v-2.363h-2.363a.86.86 0 010-1.719h2.363v-2.363a.86.86 0 011.719 0V17.1h2.363a.86.86 0 01.859.86z" fill="#fff"/></g><defs><clipPath id="clip0"><path fill="#fff" d="M0 0h22v22H0z"/></clipPath></defs></svg>