<svg width="20" height="24" fill="none" xmlns="http://www.w3.org/2000/svg"><path d="M12.47 7.228L10.307 9.39l-.977-.977a.78.78 0 10-1.103 1.102l1.53 1.529a.777.777 0 001.102 0l2.712-2.712a.78.78 0 00-1.103-1.103z" fill="#fff" stroke="#fff" stroke-width=".3"/><path d="M10.654 1.397c-4.727 0-8.572 3.845-8.572 8.572v1.126l-1.28 4.231c-.1.332.08.683.406.796l2.18.756v3.03c0 .355.29.644.645.644H7.31v2.2c0 .356.289.645.645.645h7.843a.645.645 0 00.645-.645V16.29a8.563 8.563 0 002.783-6.321c0-4.727-3.846-8.572-8.572-8.572zm4.726 14.112a.645.645 0 00-.226.49v6.109H8.6v-2.2a.645.645 0 00-.645-.645H4.678v-2.844a.644.644 0 00-.433-.61l-2.03-.702 1.128-3.73a.644.644 0 00.028-.187V9.969c0-4.016 3.267-7.283 7.283-7.283s7.283 3.267 7.283 7.283a7.277 7.277 0 01-2.557 5.54z" fill="#fff" stroke="#fff" stroke-width=".3"/></svg>