<svg width="60" height="60" fill="none" xmlns="http://www.w3.org/2000/svg"><g clip-path="url(#clip0)"><path d="M30 60c16.569 0 30-13.431 30-30C60 13.431 46.569 0 30 0 13.431 0 0 13.431 0 30c0 16.569 13.431 30 30 30z" fill="#FFD93B"/><path d="M60 30c0 16.575-13.434 30-30 30-9.43 0-17.85-4.35-23.353-11.166a29.842 29.842 0 0018.835 6.647c16.566 0 30-13.425 30-30a29.842 29.842 0 00-6.647-18.834C55.641 12.15 60.001 20.569 60.001 30z" fill="#F4C534"/><path d="M50.545 37.884c-2.213 9.3-10.556 16.238-20.55 16.238-9.994 0-18.338-6.938-20.55-16.256a.94.94 0 011.181-1.125c13.013 3.88 25.931 3.956 38.738.018.712-.225 1.35.413 1.18 1.125z" fill="#3E4347"/><path d="M28.786 46.256c-7.68 0-13.151-2.26-12.086 3.08.006.029.017.055.023.083a20.992 20.992 0 0013.27 4.701c5.035 0 9.648-1.764 13.272-4.699.006-.03.017-.056.023-.084 1.065-5.34-6.82-3.08-14.502-3.08z" fill="#E24B4B"/><path d="M10.925 36.82c1.134 4.068 9.215 7.207 19.031 7.207 9.78 0 17.835-3.116 19.016-7.165-12.58 3.788-25.267 3.711-38.047-.043z" fill="#fff"/><path d="M42.516 36.686c6.372 0 11.537-5.165 11.537-11.537 0-6.371-5.165-11.537-11.537-11.537-6.371 0-11.536 5.166-11.536 11.537 0 6.372 5.165 11.537 11.536 11.537z" fill="#F4C534"/><path d="M52.391 25.153c-.303 5.488-4.968 9.934-10.423 9.934-5.452 0-9.643-4.448-9.34-9.934.305-5.488 4.988-9.95 10.44-9.95 5.453 0 9.627 4.464 9.323 9.95z" fill="#fff"/><path d="M47.19 25.146a4.664 4.664 0 01-4.68 4.68 4.665 4.665 0 01-4.68-4.682 4.664 4.664 0 014.68-4.68 4.666 4.666 0 014.68 4.682z" fill="#3E4347"/><path d="M44.862 22.794c-.546-.545-1.272-.704-1.622-.354-.35.35-.191 1.076.354 1.622.546.546 1.272.704 1.622.354.35-.35.191-1.076-.354-1.622z" fill="#fff"/><path d="M17.487 36.686c6.372 0 11.537-5.165 11.537-11.537 0-6.371-5.165-11.537-11.537-11.537-6.372 0-11.537 5.166-11.537 11.537 0 6.372 5.165 11.537 11.537 11.537z" fill="#F4C534"/><path d="M7.611 25.153c.304 5.488 4.969 9.934 10.423 9.934 5.453 0 9.643-4.448 9.34-9.934-.304-5.488-4.988-9.95-10.44-9.95-5.455 0-9.626 4.464-9.323 9.95z" fill="#fff"/><path d="M12.81 25.146a4.664 4.664 0 004.68 4.68 4.666 4.666 0 004.68-4.682 4.664 4.664 0 00-4.68-4.68 4.667 4.667 0 00-4.68 4.682z" fill="#3E4347"/><path d="M16.76 22.444c-.35-.35-1.075-.191-1.62.354-.546.546-.705 1.271-.355 1.621.35.35 1.076.192 1.622-.354.545-.545.704-1.271.354-1.621z" fill="#fff"/><path d="M18.181 8.546s-6.095-.857-12.494 6.552c0 0 4.138-13.272 12.494-6.552zm23.636 0s6.096-.857 12.495 6.552c0 0-4.138-13.272-12.495-6.552z" fill="#3E4347"/></g><defs><clipPath id="clip0"><path fill="#fff" d="M0 0h60v60H0z"/></clipPath></defs></svg>