<svg width="60" height="60" fill="none" xmlns="http://www.w3.org/2000/svg"><g clip-path="url(#clip0)"><path d="M30 60c16.569 0 30-13.431 30-30C60 13.431 46.569 0 30 0 13.431 0 0 13.431 0 30c0 16.569 13.431 30 30 30z" fill="#FFD93B"/><path d="M60 30c0 16.575-13.434 30-30 30-9.43 0-17.85-4.35-23.353-11.166a29.842 29.842 0 0018.835 6.647c16.566 0 30-13.425 30-30a29.842 29.842 0 00-6.647-18.834C55.641 12.15 60.001 20.569 60.001 30z" fill="#F4C534"/><path d="M31.584 27.302c.243 6.51 5.733 11.784 12.266 11.784 6.532 0 11.627-5.274 11.383-11.784-.244-6.51-5.734-11.8-12.266-11.8-6.533 0-11.627 5.29-11.383 11.8z" fill="#F4C534"/><path d="M33.514 26.694a9.857 9.857 0 009.242 10.493c5.464.336 10.185-3.82 10.545-9.278a9.859 9.859 0 00-9.24-10.507c-5.466-.336-10.187 3.817-10.547 9.292z" fill="#fff"/><path d="M34.988 27.13a4.662 4.662 0 004.68 4.68 4.704 4.704 0 004.695-4.68 4.694 4.694 0 00-4.695-4.68 4.682 4.682 0 00-4.68 4.68z" fill="#3E4347"/><path d="M36.81 26.58c.424.409 1.163.33 1.68-.19.518-.517.614-1.27.205-1.68-.409-.408-1.163-.33-1.68.188-.52.52-.613 1.273-.205 1.682z" fill="#5A5F63"/><path d="M32.903 16.498s5.742-5.398 15.754-4.515c0 0-13.25-5.055-15.754 4.515z" fill="#3E4347"/><path d="M27.625 27.302c-.244 6.51-5.734 11.784-12.267 11.784-6.532 0-11.627-5.274-11.383-11.784.244-6.51 5.734-11.8 12.266-11.8 6.533 0 11.627 5.29 11.384 11.8z" fill="#F4C534"/><path d="M25.693 26.694a9.857 9.857 0 01-9.242 10.493c-5.464.336-10.185-3.82-10.545-9.278a9.857 9.857 0 019.24-10.507c5.464-.336 10.185 3.817 10.547 9.292z" fill="#fff"/><path d="M24.217 27.13a4.662 4.662 0 01-4.68 4.68 4.704 4.704 0 01-4.695-4.68 4.694 4.694 0 014.695-4.68 4.682 4.682 0 014.68 4.68z" fill="#3E4347"/><path d="M22.396 26.58c-.423.409-1.162.33-1.68-.19-.517-.517-.613-1.27-.204-1.68.409-.408 1.162-.33 1.68.188.517.52.613 1.273.204 1.682z" fill="#5A5F63"/><path d="M26.303 16.498S20.56 11.1 10.549 11.983c0 0 13.25-5.055 15.754 4.515z" fill="#3E4347"/><path d="M44.308 14.477c-6.433 0-11.833 4.466-13.293 10.459a4.012 4.012 0 00-2.824.002c-1.46-5.993-6.86-10.461-13.296-10.461-7.552 0-13.697 6.146-13.697 13.697 0 7.55 6.146 13.697 13.697 13.697 7.553 0 13.697-6.147 13.697-13.697 0-.958.773-1.035 1.01-1.035.235 0 1.01.077 1.01 1.035 0 7.552 6.146 13.697 13.696 13.697 7.553 0 13.697-6.147 13.697-13.697 0-7.55-6.144-13.697-13.697-13.697zm-29.413 24.83c-6.139 0-11.134-4.993-11.134-11.133 0-6.14 4.995-11.132 11.134-11.132S26.03 22.035 26.03 28.176c0 6.14-4.993 11.131-11.134 11.131zm29.413 0c-6.139 0-11.133-4.993-11.133-11.133 0-6.14 4.993-11.134 11.133-11.134 6.14 0 11.134 4.993 11.134 11.134 0 6.14-4.993 11.133-11.134 11.133zM30 53.64c3.147 0 5.698-2.309 5.698-5.156 0-2.848-2.551-5.157-5.698-5.157-3.147 0-5.698 2.309-5.698 5.157 0 2.847 2.55 5.156 5.698 5.156z" fill="#3E4347"/></g><defs><clipPath id="clip0"><path fill="#fff" d="M0 0h60v60H0z"/></clipPath></defs></svg>